<?xml version="1.0" standalone="no"?>
<!DOCTYPE svg PUBLIC "-//W3C//DTD SVG 20010904//EN"
 "http://www.w3.org/TR/2001/REC-SVG-20010904/DTD/svg10.dtd">
<svg version="1.0" xmlns="http://www.w3.org/2000/svg"
 width="624.000000pt" height="171.000000pt" viewBox="0 0 624.000000 171.000000"
 preserveAspectRatio="xMidYMid meet">

<g transform="translate(0.000000,171.000000) scale(0.100000,-0.100000)"
fill="#000000" stroke="none">
<path d="M2560 1330 l0 -110 160 0 160 0 0 110 0 110 -160 0 -160 0 0 -110z"/>
<path d="M3637 1433 c-4 -3 -7 -91 -7 -195 l0 -188 -44 34 c-56 42 -127 60
-220 54 -185 -13 -290 -126 -318 -346 -13 -98 1 -243 30 -316 25 -64 75 -131
119 -160 56 -37 155 -60 231 -53 79 8 138 34 195 87 l45 41 13 -55 12 -56 129
0 128 0 0 580 0 580 -153 0 c-85 0 -157 -3 -160 -7z m-63 -546 c35 -23 59 -84
64 -162 5 -90 -11 -150 -53 -192 -29 -29 -39 -33 -88 -33 -101 0 -137 53 -137
203 0 116 24 175 80 194 42 15 102 11 134 -10z"/>
<path d="M180 830 l0 -550 175 0 175 0 0 210 0 210 195 0 195 0 0 -210 0 -210
175 0 175 0 0 550 0 550 -175 0 -175 0 0 -200 0 -200 -195 0 -195 0 0 200 0
200 -175 0 -175 0 0 -550z"/>
<path d="M1721 1124 c-160 -34 -261 -127 -261 -241 0 -23 1 -23 160 -23 153 0
160 1 160 20 0 47 117 77 182 46 38 -18 58 -51 58 -95 l0 -29 -117 -7 c-262
-16 -385 -63 -441 -170 -21 -40 -28 -162 -12 -210 19 -57 73 -111 133 -132 38
-13 80 -18 157 -17 115 1 171 15 253 65 l49 30 38 -34 c20 -19 55 -41 76 -48
50 -18 207 -18 257 -1 l38 14 -3 91 -3 92 -40 3 c-22 2 -45 8 -52 14 -10 8
-13 61 -13 207 0 231 -9 277 -67 333 -74 72 -201 108 -378 107 -60 0 -139 -7
-174 -15z m299 -527 c0 -32 -6 -61 -16 -76 -40 -56 -167 -80 -218 -40 -36 28
-36 81 0 114 23 21 44 28 149 49 11 2 35 4 53 5 l32 1 0 -53z"/>
<path d="M4460 1133 c-149 -25 -274 -119 -321 -241 -27 -72 -37 -229 -19 -310
17 -78 65 -166 114 -209 176 -153 531 -149 700 7 117 108 155 312 93 498 -39
122 -160 221 -305 251 -50 10 -209 13 -262 4z m211 -228 c46 -25 62 -68 67
-180 5 -119 -7 -171 -48 -210 -27 -25 -40 -30 -98 -33 -80 -4 -125 18 -148 73
-19 47 -20 255 0 293 39 76 140 101 227 57z"/>
<path d="M5484 1124 c-83 -20 -180 -80 -227 -140 -92 -120 -111 -341 -41 -494
71 -156 255 -243 484 -226 240 16 386 126 407 307 l6 49 -146 0 -146 0 -11
-41 c-21 -77 -76 -106 -186 -97 -104 9 -139 72 -132 243 6 153 43 199 158 199
89 -1 134 -34 150 -109 l6 -30 153 -3 154 -3 -7 58 c-17 147 -108 239 -281
283 -94 24 -249 26 -341 4z"/>
<path d="M2560 700 l0 -420 160 0 160 0 0 420 0 420 -160 0 -160 0 0 -420z"/>
</g>
</svg>
